<mxfile host="app.diagrams.net" modified="2023-04-08T02:02:40.609Z" agent="Mozilla/5.0 (Windows NT 10.0; Win64; x64) AppleWebKit/537.36 (KHTML, like Gecko) Chrome/112.0.0.0 Safari/537.36" etag="tPCmnexC2JPUT5VQVPeO" version="21.1.5" type="github">
  <diagram name="Página-1" id="WWkDh4S_erYy0YEUOFn8">
    <mxGraphModel dx="661" dy="474" grid="1" gridSize="10" guides="1" tooltips="1" connect="1" arrows="1" fold="1" page="1" pageScale="1" pageWidth="827" pageHeight="1169" math="0" shadow="0">
      <root>
        <mxCell id="0" />
        <mxCell id="1" parent="0" />
        <mxCell id="3XgtzIalYGGZw9tTv2Gq-2" style="edgeStyle=orthogonalEdgeStyle;rounded=0;orthogonalLoop=1;jettySize=auto;html=1;" parent="1" source="3XgtzIalYGGZw9tTv2Gq-1" edge="1">
          <mxGeometry relative="1" as="geometry">
            <mxPoint x="90" y="130" as="targetPoint" />
          </mxGeometry>
        </mxCell>
        <mxCell id="3XgtzIalYGGZw9tTv2Gq-1" value="INICIO" style="strokeWidth=2;html=1;shape=mxgraph.flowchart.terminator;whiteSpace=wrap;" parent="1" vertex="1">
          <mxGeometry x="40" y="40" width="100" height="60" as="geometry" />
        </mxCell>
        <mxCell id="3XgtzIalYGGZw9tTv2Gq-7" style="edgeStyle=orthogonalEdgeStyle;rounded=0;orthogonalLoop=1;jettySize=auto;html=1;" parent="1" source="3XgtzIalYGGZw9tTv2Gq-3" edge="1">
          <mxGeometry relative="1" as="geometry">
            <mxPoint x="170" y="160" as="targetPoint" />
          </mxGeometry>
        </mxCell>
        <mxCell id="3XgtzIalYGGZw9tTv2Gq-3" value="valor" style="shape=parallelogram;html=1;strokeWidth=2;perimeter=parallelogramPerimeter;whiteSpace=wrap;rounded=1;arcSize=12;size=0.23;" parent="1" vertex="1">
          <mxGeometry x="40" y="130" width="100" height="60" as="geometry" />
        </mxCell>
        <mxCell id="3XgtzIalYGGZw9tTv2Gq-10" style="edgeStyle=orthogonalEdgeStyle;rounded=0;orthogonalLoop=1;jettySize=auto;html=1;" parent="1" source="3XgtzIalYGGZw9tTv2Gq-8" edge="1">
          <mxGeometry relative="1" as="geometry">
            <mxPoint x="290" y="160" as="targetPoint" />
          </mxGeometry>
        </mxCell>
        <mxCell id="3XgtzIalYGGZw9tTv2Gq-13" style="edgeStyle=orthogonalEdgeStyle;rounded=0;orthogonalLoop=1;jettySize=auto;html=1;" parent="1" source="3XgtzIalYGGZw9tTv2Gq-8" edge="1">
          <mxGeometry relative="1" as="geometry">
            <mxPoint x="600" y="300" as="targetPoint" />
            <Array as="points">
              <mxPoint x="220" y="300" />
              <mxPoint x="600" y="300" />
            </Array>
          </mxGeometry>
        </mxCell>
        <mxCell id="3XgtzIalYGGZw9tTv2Gq-8" value="valor&amp;gt;0" style="strokeWidth=2;html=1;shape=mxgraph.flowchart.decision;whiteSpace=wrap;" parent="1" vertex="1">
          <mxGeometry x="170" y="130" width="100" height="60" as="geometry" />
        </mxCell>
        <mxCell id="3XgtzIalYGGZw9tTv2Gq-11" style="edgeStyle=orthogonalEdgeStyle;rounded=0;orthogonalLoop=1;jettySize=auto;html=1;" parent="1" source="3XgtzIalYGGZw9tTv2Gq-9" edge="1">
          <mxGeometry relative="1" as="geometry">
            <mxPoint x="420" y="160" as="targetPoint" />
          </mxGeometry>
        </mxCell>
        <mxCell id="3XgtzIalYGGZw9tTv2Gq-14" style="edgeStyle=orthogonalEdgeStyle;rounded=0;orthogonalLoop=1;jettySize=auto;html=1;" parent="1" source="3XgtzIalYGGZw9tTv2Gq-9" edge="1">
          <mxGeometry relative="1" as="geometry">
            <mxPoint x="600" y="300" as="targetPoint" />
            <Array as="points">
              <mxPoint x="340" y="300" />
              <mxPoint x="600" y="300" />
            </Array>
          </mxGeometry>
        </mxCell>
        <mxCell id="3XgtzIalYGGZw9tTv2Gq-9" value="valor&amp;lt;0" style="strokeWidth=2;html=1;shape=mxgraph.flowchart.decision;whiteSpace=wrap;" parent="1" vertex="1">
          <mxGeometry x="290" y="130" width="100" height="60" as="geometry" />
        </mxCell>
        <mxCell id="3XgtzIalYGGZw9tTv2Gq-15" style="edgeStyle=orthogonalEdgeStyle;rounded=0;orthogonalLoop=1;jettySize=auto;html=1;" parent="1" source="3XgtzIalYGGZw9tTv2Gq-12" edge="1">
          <mxGeometry relative="1" as="geometry">
            <mxPoint x="600" y="300" as="targetPoint" />
            <Array as="points">
              <mxPoint x="464" y="300" />
              <mxPoint x="600" y="300" />
            </Array>
          </mxGeometry>
        </mxCell>
        <mxCell id="3XgtzIalYGGZw9tTv2Gq-12" value="valor=0" style="strokeWidth=2;html=1;shape=mxgraph.flowchart.decision;whiteSpace=wrap;" parent="1" vertex="1">
          <mxGeometry x="414" y="130" width="100" height="60" as="geometry" />
        </mxCell>
        <mxCell id="3XgtzIalYGGZw9tTv2Gq-16" value="&quot;o Número:&quot; , valor , &quot; é Positivo&quot;" style="shape=display;whiteSpace=wrap;html=1;" parent="1" vertex="1">
          <mxGeometry x="170" y="210" width="100" height="50" as="geometry" />
        </mxCell>
        <mxCell id="3XgtzIalYGGZw9tTv2Gq-17" value="&quot;o Número:&quot; , valor , &quot; é Negativo&quot;" style="shape=display;whiteSpace=wrap;html=1;" parent="1" vertex="1">
          <mxGeometry x="290" y="210" width="100" height="50" as="geometry" />
        </mxCell>
        <mxCell id="3XgtzIalYGGZw9tTv2Gq-18" value="&quot;o Número:&quot; , valor , &quot; é Zero&quot;" style="shape=display;whiteSpace=wrap;html=1;" parent="1" vertex="1">
          <mxGeometry x="414" y="210" width="100" height="50" as="geometry" />
        </mxCell>
        <mxCell id="3XgtzIalYGGZw9tTv2Gq-19" value="fim" style="strokeWidth=2;html=1;shape=mxgraph.flowchart.terminator;whiteSpace=wrap;" parent="1" vertex="1">
          <mxGeometry x="600" y="270" width="100" height="60" as="geometry" />
        </mxCell>
      </root>
    </mxGraphModel>
  </diagram>
</mxfile>
